<?xml version="1.0" encoding="UTF-8"?>
<svg xmlns="http://www.w3.org/2000/svg" xmlns:xlink="http://www.w3.org/1999/xlink" viewBox="0 0 1920 1080">
  <defs>
    <style>
      .cls-1 {
        fill: none;
      }

      .cls-2 {
        fill: url(#Dégradé_sans_nom_6);
      }

      .cls-3 {
        opacity: .25;
      }

      .cls-3, .cls-4, .cls-5, .cls-6 {
        fill: #fff;
      }

      .cls-4 {
        opacity: .5;
      }

      .cls-5 {
        opacity: .6;
      }

      .cls-6 {
        opacity: .8;
      }

      .cls-7 {
        mix-blend-mode: soft-light;
        opacity: .1;
      }

      .cls-8 {
        isolation: isolate;
      }

      .cls-9 {
        clip-path: url(#clippath-1);
      }

      .cls-10 {
        clip-path: url(#clippath);
      }
    </style>
    <clipPath id="clippath">
      <rect class="cls-1" width="1920" height="1080"/>
    </clipPath>
    <linearGradient id="Dégradé_sans_nom_6" data-name="Dégradé sans nom 6" x1="-526.1" y1="-438.74" x2="1642.24" y2="989.32" gradientUnits="userSpaceOnUse">
      <stop offset="0" stop-color="#1c6657"/>
      <stop offset="1" stop-color="#1a365e"/>
    </linearGradient>
    <clipPath id="clippath-1">
      <rect class="cls-1" x="-16.05" y="-11.91" width="1952.1" height="1103.82"/>
    </clipPath>
  </defs>
  <g class="cls-8">
    <g id="Calque_1" data-name="Calque 1">
      <g class="cls-10">
        <rect class="cls-2" width="1920" height="1080"/>
        <g class="cls-7">
          <g class="cls-9">
            <g>
              <g id="_Grille_de_répétition_" data-name="&amp;lt;Grille de répétition&amp;gt;">
                <g>
                  <rect class="cls-6" x="-16.05" y="-11.91" width="61.03" height="61.03" rx="17.83" ry="17.83"/>
                  <path class="cls-3" d="M80.79,49.12h-9.32c-11.7,0-21.19-9.49-21.19-21.19V9.28c0-11.7,9.49-21.19,21.19-21.19h9.32c16.85,0,30.51,13.66,30.51,30.51,0,16.85-13.66,30.51-30.51,30.51Z"/>
                  <rect class="cls-4" x="-16.05" y="54.42" width="61.03" height="61.03" rx="17.83" ry="17.83"/>
                  <path class="cls-5" d="M80.79,115.45h-9.32c-11.7,0-21.19-9.49-21.19-21.19v-18.65c0-11.7,9.49-21.19,21.19-21.19h9.32c16.85,0,30.51,13.66,30.51,30.51,0,16.85-13.66,30.51-30.51,30.51Z"/>
                </g>
              </g>
              <g id="_Grille_de_répétition_-2" data-name="&amp;lt;Grille de répétition&amp;gt;">
                <g>
                  <rect class="cls-6" x="175.34" y="-11.91" width="61.03" height="61.03" rx="17.83" ry="17.83"/>
                  <path class="cls-3" d="M272.18,49.12h-9.32c-11.7,0-21.19-9.49-21.19-21.19V9.28c0-11.7,9.49-21.19,21.19-21.19h9.32c16.85,0,30.51,13.66,30.51,30.51,0,16.85-13.66,30.51-30.51,30.51Z"/>
                  <rect class="cls-4" x="175.34" y="54.42" width="61.03" height="61.03" rx="17.83" ry="17.83"/>
                  <path class="cls-5" d="M272.18,115.45h-9.32c-11.7,0-21.19-9.49-21.19-21.19v-18.65c0-11.7,9.49-21.19,21.19-21.19h9.32c16.85,0,30.51,13.66,30.51,30.51,0,16.85-13.66,30.51-30.51,30.51Z"/>
                </g>
              </g>
              <g id="_Grille_de_répétition_-3" data-name="&amp;lt;Grille de répétition&amp;gt;">
                <g>
                  <rect class="cls-6" x="366.73" y="-11.91" width="61.03" height="61.03" rx="17.83" ry="17.83"/>
                  <path class="cls-3" d="M463.57,49.12h-9.32c-11.7,0-21.19-9.49-21.19-21.19V9.28c0-11.7,9.49-21.19,21.19-21.19h9.32c16.85,0,30.51,13.66,30.51,30.51,0,16.85-13.66,30.51-30.51,30.51Z"/>
                  <rect class="cls-4" x="366.73" y="54.42" width="61.03" height="61.03" rx="17.83" ry="17.83"/>
                  <path class="cls-5" d="M463.57,115.45h-9.32c-11.7,0-21.19-9.49-21.19-21.19v-18.65c0-11.7,9.49-21.19,21.19-21.19h9.32c16.85,0,30.51,13.66,30.51,30.51,0,16.85-13.66,30.51-30.51,30.51Z"/>
                </g>
              </g>
              <g id="_Grille_de_répétition_-4" data-name="&amp;lt;Grille de répétition&amp;gt;">
                <g>
                  <rect class="cls-6" x="558.12" y="-11.91" width="61.03" height="61.03" rx="17.83" ry="17.83"/>
                  <path class="cls-3" d="M654.96,49.12h-9.32c-11.7,0-21.19-9.49-21.19-21.19V9.28c0-11.7,9.49-21.19,21.19-21.19h9.32c16.85,0,30.51,13.66,30.51,30.51,0,16.85-13.66,30.51-30.51,30.51Z"/>
                  <rect class="cls-4" x="558.12" y="54.42" width="61.03" height="61.03" rx="17.83" ry="17.83"/>
                  <path class="cls-5" d="M654.96,115.45h-9.32c-11.7,0-21.19-9.49-21.19-21.19v-18.65c0-11.7,9.49-21.19,21.19-21.19h9.32c16.85,0,30.51,13.66,30.51,30.51,0,16.85-13.66,30.51-30.51,30.51Z"/>
                </g>
              </g>
              <g id="_Grille_de_répétition_-5" data-name="&amp;lt;Grille de répétition&amp;gt;">
                <g>
                  <rect class="cls-6" x="749.51" y="-11.91" width="61.03" height="61.03" rx="17.83" ry="17.83"/>
                  <path class="cls-3" d="M846.35,49.12h-9.32c-11.7,0-21.19-9.49-21.19-21.19V9.28c0-11.7,9.49-21.19,21.19-21.19h9.32c16.85,0,30.51,13.66,30.51,30.51,0,16.85-13.66,30.51-30.51,30.51Z"/>
                  <rect class="cls-4" x="749.51" y="54.42" width="61.03" height="61.03" rx="17.83" ry="17.83"/>
                  <path class="cls-5" d="M846.35,115.45h-9.32c-11.7,0-21.19-9.49-21.19-21.19v-18.65c0-11.7,9.49-21.19,21.19-21.19h9.32c16.85,0,30.51,13.66,30.51,30.51,0,16.85-13.66,30.51-30.51,30.51Z"/>
                </g>
              </g>
              <g id="_Grille_de_répétition_-6" data-name="&amp;lt;Grille de répétition&amp;gt;">
                <g>
                  <rect class="cls-6" x="940.9" y="-11.91" width="61.03" height="61.03" rx="17.83" ry="17.83"/>
                  <path class="cls-3" d="M1037.74,49.12h-9.32c-11.7,0-21.19-9.49-21.19-21.19V9.28c0-11.7,9.49-21.19,21.19-21.19h9.32c16.85,0,30.51,13.66,30.51,30.51,0,16.85-13.66,30.51-30.51,30.51Z"/>
                  <rect class="cls-4" x="940.9" y="54.42" width="61.03" height="61.03" rx="17.83" ry="17.83"/>
                  <path class="cls-5" d="M1037.74,115.45h-9.32c-11.7,0-21.19-9.49-21.19-21.19v-18.65c0-11.7,9.49-21.19,21.19-21.19h9.32c16.85,0,30.51,13.66,30.51,30.51,0,16.85-13.66,30.51-30.51,30.51Z"/>
                </g>
              </g>
              <g id="_Grille_de_répétition_-7" data-name="&amp;lt;Grille de répétition&amp;gt;">
                <g>
                  <rect class="cls-6" x="1132.29" y="-11.91" width="61.03" height="61.03" rx="17.83" ry="17.83"/>
                  <path class="cls-3" d="M1229.13,49.12h-9.32c-11.7,0-21.19-9.49-21.19-21.19V9.28c0-11.7,9.49-21.19,21.19-21.19h9.32c16.85,0,30.51,13.66,30.51,30.51,0,16.85-13.66,30.51-30.51,30.51Z"/>
                  <rect class="cls-4" x="1132.29" y="54.42" width="61.03" height="61.03" rx="17.83" ry="17.83"/>
                  <path class="cls-5" d="M1229.13,115.45h-9.32c-11.7,0-21.19-9.49-21.19-21.19v-18.65c0-11.7,9.49-21.19,21.19-21.19h9.32c16.85,0,30.51,13.66,30.51,30.51,0,16.85-13.66,30.51-30.51,30.51Z"/>
                </g>
              </g>
              <g id="_Grille_de_répétition_-8" data-name="&amp;lt;Grille de répétition&amp;gt;">
                <g>
                  <rect class="cls-6" x="1323.67" y="-11.91" width="61.03" height="61.03" rx="17.83" ry="17.83"/>
                  <path class="cls-3" d="M1420.52,49.12h-9.32c-11.7,0-21.19-9.49-21.19-21.19V9.28c0-11.7,9.49-21.19,21.19-21.19h9.32c16.85,0,30.51,13.66,30.51,30.51,0,16.85-13.66,30.51-30.51,30.51Z"/>
                  <rect class="cls-4" x="1323.67" y="54.42" width="61.03" height="61.03" rx="17.83" ry="17.83"/>
                  <path class="cls-5" d="M1420.52,115.45h-9.32c-11.7,0-21.19-9.49-21.19-21.19v-18.65c0-11.7,9.49-21.19,21.19-21.19h9.32c16.85,0,30.51,13.66,30.51,30.51,0,16.85-13.66,30.51-30.51,30.51Z"/>
                </g>
              </g>
              <g id="_Grille_de_répétition_-9" data-name="&amp;lt;Grille de répétition&amp;gt;">
                <g>
                  <rect class="cls-6" x="1515.06" y="-11.91" width="61.03" height="61.03" rx="17.83" ry="17.83"/>
                  <path class="cls-3" d="M1611.91,49.12h-9.32c-11.7,0-21.19-9.49-21.19-21.19V9.28c0-11.7,9.49-21.19,21.19-21.19h9.32c16.85,0,30.51,13.66,30.51,30.51,0,16.85-13.66,30.51-30.51,30.51Z"/>
                  <rect class="cls-4" x="1515.06" y="54.42" width="61.03" height="61.03" rx="17.83" ry="17.83"/>
                  <path class="cls-5" d="M1611.91,115.45h-9.32c-11.7,0-21.19-9.49-21.19-21.19v-18.65c0-11.7,9.49-21.19,21.19-21.19h9.32c16.85,0,30.51,13.66,30.51,30.51,0,16.85-13.66,30.51-30.51,30.51Z"/>
                </g>
              </g>
              <g id="_Grille_de_répétition_-10" data-name="&amp;lt;Grille de répétition&amp;gt;">
                <g>
                  <rect class="cls-6" x="1706.45" y="-11.91" width="61.03" height="61.03" rx="17.83" ry="17.83"/>
                  <path class="cls-3" d="M1803.29,49.12h-9.32c-11.7,0-21.19-9.49-21.19-21.19V9.28c0-11.7,9.49-21.19,21.19-21.19h9.32c16.85,0,30.51,13.66,30.51,30.51,0,16.85-13.66,30.51-30.51,30.51Z"/>
                  <rect class="cls-4" x="1706.45" y="54.42" width="61.03" height="61.03" rx="17.83" ry="17.83"/>
                  <path class="cls-5" d="M1803.29,115.45h-9.32c-11.7,0-21.19-9.49-21.19-21.19v-18.65c0-11.7,9.49-21.19,21.19-21.19h9.32c16.85,0,30.51,13.66,30.51,30.51,0,16.85-13.66,30.51-30.51,30.51Z"/>
                </g>
              </g>
              <g id="_Grille_de_répétition_-11" data-name="&amp;lt;Grille de répétition&amp;gt;">
                <g>
                  <rect class="cls-6" x="1897.84" y="-11.91" width="61.03" height="61.03" rx="17.83" ry="17.83"/>
                  <rect class="cls-4" x="1897.84" y="54.42" width="61.03" height="61.03" rx="17.83" ry="17.83"/>
                </g>
              </g>
              <g id="_Grille_de_répétition_-12" data-name="&amp;lt;Grille de répétition&amp;gt;">
                <g>
                  <rect class="cls-6" x="-16.05" y="161.05" width="61.03" height="61.03" rx="17.83" ry="17.83"/>
                  <path class="cls-3" d="M80.79,222.08h-9.32c-11.7,0-21.19-9.49-21.19-21.19v-18.65c0-11.7,9.49-21.19,21.19-21.19h9.32c16.85,0,30.51,13.66,30.51,30.51,0,16.85-13.66,30.51-30.51,30.51Z"/>
                  <rect class="cls-4" x="-16.05" y="227.37" width="61.03" height="61.03" rx="17.83" ry="17.83"/>
                  <path class="cls-5" d="M80.79,288.4h-9.32c-11.7,0-21.19-9.49-21.19-21.19v-18.65c0-11.7,9.49-21.19,21.19-21.19h9.32c16.85,0,30.51,13.66,30.51,30.51,0,16.85-13.66,30.51-30.51,30.51Z"/>
                </g>
              </g>
              <g id="_Grille_de_répétition_-13" data-name="&amp;lt;Grille de répétition&amp;gt;">
                <g>
                  <rect class="cls-6" x="175.34" y="161.05" width="61.03" height="61.03" rx="17.83" ry="17.83"/>
                  <path class="cls-3" d="M272.18,222.08h-9.32c-11.7,0-21.19-9.49-21.19-21.19v-18.65c0-11.7,9.49-21.19,21.19-21.19h9.32c16.85,0,30.51,13.66,30.51,30.51,0,16.85-13.66,30.51-30.51,30.51Z"/>
                  <rect class="cls-4" x="175.34" y="227.37" width="61.03" height="61.03" rx="17.83" ry="17.83"/>
                  <path class="cls-5" d="M272.18,288.4h-9.32c-11.7,0-21.19-9.49-21.19-21.19v-18.65c0-11.7,9.49-21.19,21.19-21.19h9.32c16.85,0,30.51,13.66,30.51,30.51,0,16.85-13.66,30.51-30.51,30.51Z"/>
                </g>
              </g>
              <g id="_Grille_de_répétition_-14" data-name="&amp;lt;Grille de répétition&amp;gt;">
                <g>
                  <rect class="cls-6" x="366.73" y="161.05" width="61.03" height="61.03" rx="17.83" ry="17.83"/>
                  <path class="cls-3" d="M463.57,222.08h-9.32c-11.7,0-21.19-9.49-21.19-21.19v-18.65c0-11.7,9.49-21.19,21.19-21.19h9.32c16.85,0,30.51,13.66,30.51,30.51,0,16.85-13.66,30.51-30.51,30.51Z"/>
                  <rect class="cls-4" x="366.73" y="227.37" width="61.03" height="61.03" rx="17.83" ry="17.83"/>
                  <path class="cls-5" d="M463.57,288.4h-9.32c-11.7,0-21.19-9.49-21.19-21.19v-18.65c0-11.7,9.49-21.19,21.19-21.19h9.32c16.85,0,30.51,13.66,30.51,30.51,0,16.85-13.66,30.51-30.51,30.51Z"/>
                </g>
              </g>
              <g id="_Grille_de_répétition_-15" data-name="&amp;lt;Grille de répétition&amp;gt;">
                <g>
                  <rect class="cls-6" x="558.12" y="161.05" width="61.03" height="61.03" rx="17.83" ry="17.83"/>
                  <path class="cls-3" d="M654.96,222.08h-9.32c-11.7,0-21.19-9.49-21.19-21.19v-18.65c0-11.7,9.49-21.19,21.19-21.19h9.32c16.85,0,30.51,13.66,30.51,30.51,0,16.85-13.66,30.51-30.51,30.51Z"/>
                  <rect class="cls-4" x="558.12" y="227.37" width="61.03" height="61.03" rx="17.83" ry="17.83"/>
                  <path class="cls-5" d="M654.96,288.4h-9.32c-11.7,0-21.19-9.49-21.19-21.19v-18.65c0-11.7,9.49-21.19,21.19-21.19h9.32c16.85,0,30.51,13.66,30.51,30.51,0,16.85-13.66,30.51-30.51,30.51Z"/>
                </g>
              </g>
              <g id="_Grille_de_répétition_-16" data-name="&amp;lt;Grille de répétition&amp;gt;">
                <g>
                  <rect class="cls-6" x="749.51" y="161.05" width="61.03" height="61.03" rx="17.83" ry="17.83"/>
                  <path class="cls-3" d="M846.35,222.08h-9.32c-11.7,0-21.19-9.49-21.19-21.19v-18.65c0-11.7,9.49-21.19,21.19-21.19h9.32c16.85,0,30.51,13.66,30.51,30.51,0,16.85-13.66,30.51-30.51,30.51Z"/>
                  <rect class="cls-4" x="749.51" y="227.37" width="61.03" height="61.03" rx="17.83" ry="17.83"/>
                  <path class="cls-5" d="M846.35,288.4h-9.32c-11.7,0-21.19-9.49-21.19-21.19v-18.65c0-11.7,9.49-21.19,21.19-21.19h9.32c16.85,0,30.51,13.66,30.51,30.51,0,16.85-13.66,30.51-30.51,30.51Z"/>
                </g>
              </g>
              <g id="_Grille_de_répétition_-17" data-name="&amp;lt;Grille de répétition&amp;gt;">
                <g>
                  <rect class="cls-6" x="940.9" y="161.05" width="61.03" height="61.03" rx="17.83" ry="17.83"/>
                  <path class="cls-3" d="M1037.74,222.08h-9.32c-11.7,0-21.19-9.49-21.19-21.19v-18.65c0-11.7,9.49-21.19,21.19-21.19h9.32c16.85,0,30.51,13.66,30.51,30.51,0,16.85-13.66,30.51-30.51,30.51Z"/>
                  <rect class="cls-4" x="940.9" y="227.37" width="61.03" height="61.03" rx="17.83" ry="17.83"/>
                  <path class="cls-5" d="M1037.74,288.4h-9.32c-11.7,0-21.19-9.49-21.19-21.19v-18.65c0-11.7,9.49-21.19,21.19-21.19h9.32c16.85,0,30.51,13.66,30.51,30.51,0,16.85-13.66,30.51-30.51,30.51Z"/>
                </g>
              </g>
              <g id="_Grille_de_répétition_-18" data-name="&amp;lt;Grille de répétition&amp;gt;">
                <g>
                  <rect class="cls-6" x="1132.29" y="161.05" width="61.03" height="61.03" rx="17.83" ry="17.83"/>
                  <path class="cls-3" d="M1229.13,222.08h-9.32c-11.7,0-21.19-9.49-21.19-21.19v-18.65c0-11.7,9.49-21.19,21.19-21.19h9.32c16.85,0,30.51,13.66,30.51,30.51,0,16.85-13.66,30.51-30.51,30.51Z"/>
                  <rect class="cls-4" x="1132.29" y="227.37" width="61.03" height="61.03" rx="17.83" ry="17.83"/>
                  <path class="cls-5" d="M1229.13,288.4h-9.32c-11.7,0-21.19-9.49-21.19-21.19v-18.65c0-11.7,9.49-21.19,21.19-21.19h9.32c16.85,0,30.51,13.66,30.51,30.51,0,16.85-13.66,30.51-30.51,30.51Z"/>
                </g>
              </g>
              <g id="_Grille_de_répétition_-19" data-name="&amp;lt;Grille de répétition&amp;gt;">
                <g>
                  <rect class="cls-6" x="1323.67" y="161.05" width="61.03" height="61.03" rx="17.83" ry="17.83"/>
                  <path class="cls-3" d="M1420.52,222.08h-9.32c-11.7,0-21.19-9.49-21.19-21.19v-18.65c0-11.7,9.49-21.19,21.19-21.19h9.32c16.85,0,30.51,13.66,30.51,30.51,0,16.85-13.66,30.51-30.51,30.51Z"/>
                  <rect class="cls-4" x="1323.67" y="227.37" width="61.03" height="61.03" rx="17.83" ry="17.83"/>
                  <path class="cls-5" d="M1420.52,288.4h-9.32c-11.7,0-21.19-9.49-21.19-21.19v-18.65c0-11.7,9.49-21.19,21.19-21.19h9.32c16.85,0,30.51,13.66,30.51,30.51,0,16.85-13.66,30.51-30.51,30.51Z"/>
                </g>
              </g>
              <g id="_Grille_de_répétition_-20" data-name="&amp;lt;Grille de répétition&amp;gt;">
                <g>
                  <rect class="cls-6" x="1515.06" y="161.05" width="61.03" height="61.03" rx="17.83" ry="17.83"/>
                  <path class="cls-3" d="M1611.91,222.08h-9.32c-11.7,0-21.19-9.49-21.19-21.19v-18.65c0-11.7,9.49-21.19,21.19-21.19h9.32c16.85,0,30.51,13.66,30.51,30.51,0,16.85-13.66,30.51-30.51,30.51Z"/>
                  <rect class="cls-4" x="1515.06" y="227.37" width="61.03" height="61.03" rx="17.83" ry="17.83"/>
                  <path class="cls-5" d="M1611.91,288.4h-9.32c-11.7,0-21.19-9.49-21.19-21.19v-18.65c0-11.7,9.49-21.19,21.19-21.19h9.32c16.85,0,30.51,13.66,30.51,30.51,0,16.85-13.66,30.51-30.51,30.51Z"/>
                </g>
              </g>
              <g id="_Grille_de_répétition_-21" data-name="&amp;lt;Grille de répétition&amp;gt;">
                <g>
                  <rect class="cls-6" x="1706.45" y="161.05" width="61.03" height="61.03" rx="17.83" ry="17.83"/>
                  <path class="cls-3" d="M1803.29,222.08h-9.32c-11.7,0-21.19-9.49-21.19-21.19v-18.65c0-11.7,9.49-21.19,21.19-21.19h9.32c16.85,0,30.51,13.66,30.51,30.51,0,16.85-13.66,30.51-30.51,30.51Z"/>
                  <rect class="cls-4" x="1706.45" y="227.37" width="61.03" height="61.03" rx="17.83" ry="17.83"/>
                  <path class="cls-5" d="M1803.29,288.4h-9.32c-11.7,0-21.19-9.49-21.19-21.19v-18.65c0-11.7,9.49-21.19,21.19-21.19h9.32c16.85,0,30.51,13.66,30.51,30.51,0,16.85-13.66,30.51-30.51,30.51Z"/>
                </g>
              </g>
              <g id="_Grille_de_répétition_-22" data-name="&amp;lt;Grille de répétition&amp;gt;">
                <g>
                  <rect class="cls-6" x="1897.84" y="161.05" width="61.03" height="61.03" rx="17.83" ry="17.83"/>
                  <rect class="cls-4" x="1897.84" y="227.37" width="61.03" height="61.03" rx="17.83" ry="17.83"/>
                </g>
              </g>
              <g id="_Grille_de_répétition_-23" data-name="&amp;lt;Grille de répétition&amp;gt;">
                <g>
                  <rect class="cls-6" x="-16.05" y="334" width="61.03" height="61.03" rx="17.83" ry="17.83"/>
                  <path class="cls-3" d="M80.79,395.03h-9.32c-11.7,0-21.19-9.49-21.19-21.19v-18.65c0-11.7,9.49-21.19,21.19-21.19h9.32c16.85,0,30.51,13.66,30.51,30.51,0,16.85-13.66,30.51-30.51,30.51Z"/>
                  <rect class="cls-4" x="-16.05" y="400.33" width="61.03" height="61.03" rx="17.83" ry="17.83"/>
                  <path class="cls-5" d="M80.79,461.36h-9.32c-11.7,0-21.19-9.49-21.19-21.19v-18.65c0-11.7,9.49-21.19,21.19-21.19h9.32c16.85,0,30.51,13.66,30.51,30.51,0,16.85-13.66,30.51-30.51,30.51Z"/>
                </g>
              </g>
              <g id="_Grille_de_répétition_-24" data-name="&amp;lt;Grille de répétition&amp;gt;">
                <g>
                  <rect class="cls-6" x="175.34" y="334" width="61.03" height="61.03" rx="17.83" ry="17.83"/>
                  <path class="cls-3" d="M272.18,395.03h-9.32c-11.7,0-21.19-9.49-21.19-21.19v-18.65c0-11.7,9.49-21.19,21.19-21.19h9.32c16.85,0,30.51,13.66,30.51,30.51,0,16.85-13.66,30.51-30.51,30.51Z"/>
                  <rect class="cls-4" x="175.34" y="400.33" width="61.03" height="61.03" rx="17.83" ry="17.83"/>
                  <path class="cls-5" d="M272.18,461.36h-9.32c-11.7,0-21.19-9.49-21.19-21.19v-18.65c0-11.7,9.49-21.19,21.19-21.19h9.32c16.85,0,30.51,13.66,30.51,30.51,0,16.85-13.66,30.51-30.51,30.51Z"/>
                </g>
              </g>
              <g id="_Grille_de_répétition_-25" data-name="&amp;lt;Grille de répétition&amp;gt;">
                <g>
                  <rect class="cls-6" x="366.73" y="334" width="61.03" height="61.03" rx="17.83" ry="17.83"/>
                  <path class="cls-3" d="M463.57,395.03h-9.32c-11.7,0-21.19-9.49-21.19-21.19v-18.65c0-11.7,9.49-21.19,21.19-21.19h9.32c16.85,0,30.51,13.66,30.51,30.51,0,16.85-13.66,30.51-30.51,30.51Z"/>
                  <rect class="cls-4" x="366.73" y="400.33" width="61.03" height="61.03" rx="17.83" ry="17.83"/>
                  <path class="cls-5" d="M463.57,461.36h-9.32c-11.7,0-21.19-9.49-21.19-21.19v-18.65c0-11.7,9.49-21.19,21.19-21.19h9.32c16.85,0,30.51,13.66,30.51,30.51,0,16.85-13.66,30.51-30.51,30.51Z"/>
                </g>
              </g>
              <g id="_Grille_de_répétition_-26" data-name="&amp;lt;Grille de répétition&amp;gt;">
                <g>
                  <rect class="cls-6" x="558.12" y="334" width="61.03" height="61.03" rx="17.83" ry="17.83"/>
                  <path class="cls-3" d="M654.96,395.03h-9.32c-11.7,0-21.19-9.49-21.19-21.19v-18.65c0-11.7,9.49-21.19,21.19-21.19h9.32c16.85,0,30.51,13.66,30.51,30.51,0,16.85-13.66,30.51-30.51,30.51Z"/>
                  <rect class="cls-4" x="558.12" y="400.33" width="61.03" height="61.03" rx="17.83" ry="17.83"/>
                  <path class="cls-5" d="M654.96,461.36h-9.32c-11.7,0-21.19-9.49-21.19-21.19v-18.65c0-11.7,9.49-21.19,21.19-21.19h9.32c16.85,0,30.51,13.66,30.51,30.51,0,16.85-13.66,30.51-30.51,30.51Z"/>
                </g>
              </g>
              <g id="_Grille_de_répétition_-27" data-name="&amp;lt;Grille de répétition&amp;gt;">
                <g>
                  <rect class="cls-6" x="749.51" y="334" width="61.03" height="61.03" rx="17.83" ry="17.83"/>
                  <path class="cls-3" d="M846.35,395.03h-9.32c-11.7,0-21.19-9.49-21.19-21.19v-18.65c0-11.7,9.49-21.19,21.19-21.19h9.32c16.85,0,30.51,13.66,30.51,30.51,0,16.85-13.66,30.51-30.51,30.51Z"/>
                  <rect class="cls-4" x="749.51" y="400.33" width="61.03" height="61.03" rx="17.83" ry="17.83"/>
                  <path class="cls-5" d="M846.35,461.36h-9.32c-11.7,0-21.19-9.49-21.19-21.19v-18.65c0-11.7,9.49-21.19,21.19-21.19h9.32c16.85,0,30.51,13.66,30.51,30.51,0,16.85-13.66,30.51-30.51,30.51Z"/>
                </g>
              </g>
              <g id="_Grille_de_répétition_-28" data-name="&amp;lt;Grille de répétition&amp;gt;">
                <g>
                  <rect class="cls-6" x="940.9" y="334" width="61.03" height="61.03" rx="17.83" ry="17.83"/>
                  <path class="cls-3" d="M1037.74,395.03h-9.32c-11.7,0-21.19-9.49-21.19-21.19v-18.65c0-11.7,9.49-21.19,21.19-21.19h9.32c16.85,0,30.51,13.66,30.51,30.51,0,16.85-13.66,30.51-30.51,30.51Z"/>
                  <rect class="cls-4" x="940.9" y="400.33" width="61.03" height="61.03" rx="17.83" ry="17.83"/>
                  <path class="cls-5" d="M1037.74,461.36h-9.32c-11.7,0-21.19-9.49-21.19-21.19v-18.65c0-11.7,9.49-21.19,21.19-21.19h9.32c16.85,0,30.51,13.66,30.51,30.51,0,16.85-13.66,30.51-30.51,30.51Z"/>
                </g>
              </g>
              <g id="_Grille_de_répétition_-29" data-name="&amp;lt;Grille de répétition&amp;gt;">
                <g>
                  <rect class="cls-6" x="1132.29" y="334" width="61.03" height="61.03" rx="17.83" ry="17.83"/>
                  <path class="cls-3" d="M1229.13,395.03h-9.32c-11.7,0-21.19-9.49-21.19-21.19v-18.65c0-11.7,9.49-21.19,21.19-21.19h9.32c16.85,0,30.51,13.66,30.51,30.51,0,16.85-13.66,30.51-30.51,30.51Z"/>
                  <rect class="cls-4" x="1132.29" y="400.33" width="61.03" height="61.03" rx="17.83" ry="17.83"/>
                  <path class="cls-5" d="M1229.13,461.36h-9.32c-11.7,0-21.19-9.49-21.19-21.19v-18.65c0-11.7,9.49-21.19,21.19-21.19h9.32c16.85,0,30.51,13.66,30.51,30.51,0,16.85-13.66,30.51-30.51,30.51Z"/>
                </g>
              </g>
              <g id="_Grille_de_répétition_-30" data-name="&amp;lt;Grille de répétition&amp;gt;">
                <g>
                  <rect class="cls-6" x="1323.67" y="334" width="61.03" height="61.03" rx="17.83" ry="17.83"/>
                  <path class="cls-3" d="M1420.52,395.03h-9.32c-11.7,0-21.19-9.49-21.19-21.19v-18.65c0-11.7,9.49-21.19,21.19-21.19h9.32c16.85,0,30.51,13.66,30.51,30.51,0,16.85-13.66,30.51-30.51,30.51Z"/>
                  <rect class="cls-4" x="1323.67" y="400.33" width="61.03" height="61.03" rx="17.83" ry="17.83"/>
                  <path class="cls-5" d="M1420.52,461.36h-9.32c-11.7,0-21.19-9.49-21.19-21.19v-18.65c0-11.7,9.49-21.19,21.19-21.19h9.32c16.85,0,30.51,13.66,30.51,30.51,0,16.85-13.66,30.51-30.51,30.51Z"/>
                </g>
              </g>
              <g id="_Grille_de_répétition_-31" data-name="&amp;lt;Grille de répétition&amp;gt;">
                <g>
                  <rect class="cls-6" x="1515.06" y="334" width="61.03" height="61.03" rx="17.83" ry="17.83"/>
                  <path class="cls-3" d="M1611.91,395.03h-9.32c-11.7,0-21.19-9.49-21.19-21.19v-18.65c0-11.7,9.49-21.19,21.19-21.19h9.32c16.85,0,30.51,13.66,30.51,30.51,0,16.85-13.66,30.51-30.51,30.51Z"/>
                  <rect class="cls-4" x="1515.06" y="400.33" width="61.03" height="61.03" rx="17.83" ry="17.83"/>
                  <path class="cls-5" d="M1611.91,461.36h-9.32c-11.7,0-21.19-9.49-21.19-21.19v-18.65c0-11.7,9.49-21.19,21.19-21.19h9.32c16.85,0,30.51,13.66,30.51,30.51,0,16.85-13.66,30.51-30.51,30.51Z"/>
                </g>
              </g>
              <g id="_Grille_de_répétition_-32" data-name="&amp;lt;Grille de répétition&amp;gt;">
                <g>
                  <rect class="cls-6" x="1706.45" y="334" width="61.03" height="61.03" rx="17.83" ry="17.83"/>
                  <path class="cls-3" d="M1803.29,395.03h-9.32c-11.7,0-21.19-9.49-21.19-21.19v-18.65c0-11.7,9.49-21.19,21.19-21.19h9.32c16.85,0,30.51,13.66,30.51,30.51,0,16.85-13.66,30.51-30.51,30.51Z"/>
                  <rect class="cls-4" x="1706.45" y="400.33" width="61.03" height="61.03" rx="17.83" ry="17.83"/>
                  <path class="cls-5" d="M1803.29,461.36h-9.32c-11.7,0-21.19-9.49-21.19-21.19v-18.65c0-11.7,9.49-21.19,21.19-21.19h9.32c16.85,0,30.51,13.66,30.51,30.51,0,16.85-13.66,30.51-30.51,30.51Z"/>
                </g>
              </g>
              <g id="_Grille_de_répétition_-33" data-name="&amp;lt;Grille de répétition&amp;gt;">
                <g>
                  <rect class="cls-6" x="1897.84" y="334" width="61.03" height="61.03" rx="17.83" ry="17.83"/>
                  <rect class="cls-4" x="1897.84" y="400.33" width="61.03" height="61.03" rx="17.83" ry="17.83"/>
                </g>
              </g>
              <g id="_Grille_de_répétition_-34" data-name="&amp;lt;Grille de répétition&amp;gt;">
                <g>
                  <rect class="cls-6" x="-16.05" y="506.96" width="61.03" height="61.03" rx="17.83" ry="17.83"/>
                  <path class="cls-3" d="M80.79,567.99h-9.32c-11.7,0-21.19-9.49-21.19-21.19v-18.65c0-11.7,9.49-21.19,21.19-21.19h9.32c16.85,0,30.51,13.66,30.51,30.51,0,16.85-13.66,30.51-30.51,30.51Z"/>
                  <rect class="cls-4" x="-16.05" y="573.29" width="61.03" height="61.03" rx="17.83" ry="17.83"/>
                  <path class="cls-5" d="M80.79,634.32h-9.32c-11.7,0-21.19-9.49-21.19-21.19v-18.65c0-11.7,9.49-21.19,21.19-21.19h9.32c16.85,0,30.51,13.66,30.51,30.51,0,16.85-13.66,30.51-30.51,30.51Z"/>
                </g>
              </g>
              <g id="_Grille_de_répétition_-35" data-name="&amp;lt;Grille de répétition&amp;gt;">
                <g>
                  <rect class="cls-6" x="175.34" y="506.96" width="61.03" height="61.03" rx="17.83" ry="17.83"/>
                  <path class="cls-3" d="M272.18,567.99h-9.32c-11.7,0-21.19-9.49-21.19-21.19v-18.65c0-11.7,9.49-21.19,21.19-21.19h9.32c16.85,0,30.51,13.66,30.51,30.51,0,16.85-13.66,30.51-30.51,30.51Z"/>
                  <rect class="cls-4" x="175.34" y="573.29" width="61.03" height="61.03" rx="17.83" ry="17.83"/>
                  <path class="cls-5" d="M272.18,634.32h-9.32c-11.7,0-21.19-9.49-21.19-21.19v-18.65c0-11.7,9.49-21.19,21.19-21.19h9.32c16.85,0,30.51,13.66,30.51,30.51,0,16.85-13.66,30.51-30.51,30.51Z"/>
                </g>
              </g>
              <g id="_Grille_de_répétition_-36" data-name="&amp;lt;Grille de répétition&amp;gt;">
                <g>
                  <rect class="cls-6" x="366.73" y="506.96" width="61.03" height="61.03" rx="17.83" ry="17.83"/>
                  <path class="cls-3" d="M463.57,567.99h-9.32c-11.7,0-21.19-9.49-21.19-21.19v-18.65c0-11.7,9.49-21.19,21.19-21.19h9.32c16.85,0,30.51,13.66,30.51,30.51,0,16.85-13.66,30.51-30.51,30.51Z"/>
                  <rect class="cls-4" x="366.73" y="573.29" width="61.03" height="61.03" rx="17.83" ry="17.83"/>
                  <path class="cls-5" d="M463.57,634.32h-9.32c-11.7,0-21.19-9.49-21.19-21.19v-18.65c0-11.7,9.49-21.19,21.19-21.19h9.32c16.85,0,30.51,13.66,30.51,30.51,0,16.85-13.66,30.51-30.51,30.51Z"/>
                </g>
              </g>
              <g id="_Grille_de_répétition_-37" data-name="&amp;lt;Grille de répétition&amp;gt;">
                <g>
                  <rect class="cls-6" x="558.12" y="506.96" width="61.03" height="61.03" rx="17.83" ry="17.83"/>
                  <path class="cls-3" d="M654.96,567.99h-9.32c-11.7,0-21.19-9.49-21.19-21.19v-18.65c0-11.7,9.49-21.19,21.19-21.19h9.32c16.85,0,30.51,13.66,30.51,30.51,0,16.85-13.66,30.51-30.51,30.51Z"/>
                  <rect class="cls-4" x="558.12" y="573.29" width="61.03" height="61.03" rx="17.83" ry="17.83"/>
                  <path class="cls-5" d="M654.96,634.32h-9.32c-11.7,0-21.19-9.49-21.19-21.19v-18.65c0-11.7,9.49-21.19,21.19-21.19h9.32c16.85,0,30.51,13.66,30.51,30.51,0,16.85-13.66,30.51-30.51,30.51Z"/>
                </g>
              </g>
              <g id="_Grille_de_répétition_-38" data-name="&amp;lt;Grille de répétition&amp;gt;">
                <g>
                  <rect class="cls-6" x="749.51" y="506.96" width="61.03" height="61.03" rx="17.83" ry="17.83"/>
                  <path class="cls-3" d="M846.35,567.99h-9.32c-11.7,0-21.19-9.49-21.19-21.19v-18.65c0-11.7,9.49-21.19,21.19-21.19h9.32c16.85,0,30.51,13.66,30.51,30.51,0,16.85-13.66,30.51-30.51,30.51Z"/>
                  <rect class="cls-4" x="749.51" y="573.29" width="61.03" height="61.03" rx="17.83" ry="17.83"/>
                  <path class="cls-5" d="M846.35,634.32h-9.32c-11.7,0-21.19-9.49-21.19-21.19v-18.65c0-11.7,9.49-21.19,21.19-21.19h9.32c16.85,0,30.51,13.66,30.51,30.51,0,16.85-13.66,30.51-30.51,30.51Z"/>
                </g>
              </g>
              <g id="_Grille_de_répétition_-39" data-name="&amp;lt;Grille de répétition&amp;gt;">
                <g>
                  <rect class="cls-6" x="940.9" y="506.96" width="61.03" height="61.03" rx="17.83" ry="17.83"/>
                  <path class="cls-3" d="M1037.74,567.99h-9.32c-11.7,0-21.19-9.49-21.19-21.19v-18.65c0-11.7,9.49-21.19,21.19-21.19h9.32c16.85,0,30.51,13.66,30.51,30.51,0,16.85-13.66,30.51-30.51,30.51Z"/>
                  <rect class="cls-4" x="940.9" y="573.29" width="61.03" height="61.03" rx="17.83" ry="17.83"/>
                  <path class="cls-5" d="M1037.74,634.32h-9.32c-11.7,0-21.19-9.49-21.19-21.19v-18.65c0-11.7,9.49-21.19,21.19-21.19h9.32c16.85,0,30.51,13.66,30.51,30.51,0,16.85-13.66,30.51-30.51,30.51Z"/>
                </g>
              </g>
              <g id="_Grille_de_répétition_-40" data-name="&amp;lt;Grille de répétition&amp;gt;">
                <g>
                  <rect class="cls-6" x="1132.29" y="506.96" width="61.03" height="61.03" rx="17.83" ry="17.83"/>
                  <path class="cls-3" d="M1229.13,567.99h-9.32c-11.7,0-21.19-9.49-21.19-21.19v-18.65c0-11.7,9.49-21.19,21.19-21.19h9.32c16.85,0,30.51,13.66,30.51,30.51,0,16.85-13.66,30.51-30.51,30.51Z"/>
                  <rect class="cls-4" x="1132.29" y="573.29" width="61.03" height="61.03" rx="17.83" ry="17.83"/>
                  <path class="cls-5" d="M1229.13,634.32h-9.32c-11.7,0-21.19-9.49-21.19-21.19v-18.65c0-11.7,9.49-21.19,21.19-21.19h9.32c16.85,0,30.51,13.66,30.51,30.51,0,16.85-13.66,30.51-30.51,30.51Z"/>
                </g>
              </g>
              <g id="_Grille_de_répétition_-41" data-name="&amp;lt;Grille de répétition&amp;gt;">
                <g>
                  <rect class="cls-6" x="1323.67" y="506.96" width="61.03" height="61.03" rx="17.83" ry="17.83"/>
                  <path class="cls-3" d="M1420.52,567.99h-9.32c-11.7,0-21.19-9.49-21.19-21.19v-18.65c0-11.7,9.49-21.19,21.19-21.19h9.32c16.85,0,30.51,13.66,30.51,30.51,0,16.85-13.66,30.51-30.51,30.51Z"/>
                  <rect class="cls-4" x="1323.67" y="573.29" width="61.03" height="61.03" rx="17.83" ry="17.83"/>
                  <path class="cls-5" d="M1420.52,634.32h-9.32c-11.7,0-21.19-9.49-21.19-21.19v-18.65c0-11.7,9.49-21.19,21.19-21.19h9.32c16.85,0,30.51,13.66,30.51,30.51,0,16.85-13.66,30.51-30.51,30.51Z"/>
                </g>
              </g>
              <g id="_Grille_de_répétition_-42" data-name="&amp;lt;Grille de répétition&amp;gt;">
                <g>
                  <rect class="cls-6" x="1515.06" y="506.96" width="61.03" height="61.03" rx="17.83" ry="17.83"/>
                  <path class="cls-3" d="M1611.91,567.99h-9.32c-11.7,0-21.19-9.49-21.19-21.19v-18.65c0-11.7,9.49-21.19,21.19-21.19h9.32c16.85,0,30.51,13.66,30.51,30.51,0,16.85-13.66,30.51-30.51,30.51Z"/>
                  <rect class="cls-4" x="1515.06" y="573.29" width="61.03" height="61.03" rx="17.83" ry="17.83"/>
                  <path class="cls-5" d="M1611.91,634.32h-9.32c-11.7,0-21.19-9.49-21.19-21.19v-18.65c0-11.7,9.49-21.19,21.19-21.19h9.32c16.85,0,30.51,13.66,30.51,30.51,0,16.85-13.66,30.51-30.51,30.51Z"/>
                </g>
              </g>
              <g id="_Grille_de_répétition_-43" data-name="&amp;lt;Grille de répétition&amp;gt;">
                <g>
                  <rect class="cls-6" x="1706.45" y="506.96" width="61.03" height="61.03" rx="17.83" ry="17.83"/>
                  <path class="cls-3" d="M1803.29,567.99h-9.32c-11.7,0-21.19-9.49-21.19-21.19v-18.65c0-11.7,9.49-21.19,21.19-21.19h9.32c16.85,0,30.51,13.66,30.51,30.51,0,16.85-13.66,30.51-30.51,30.51Z"/>
                  <rect class="cls-4" x="1706.45" y="573.29" width="61.03" height="61.03" rx="17.83" ry="17.83"/>
                  <path class="cls-5" d="M1803.29,634.32h-9.32c-11.7,0-21.19-9.49-21.19-21.19v-18.65c0-11.7,9.49-21.19,21.19-21.19h9.32c16.85,0,30.51,13.66,30.51,30.51,0,16.85-13.66,30.51-30.51,30.51Z"/>
                </g>
              </g>
              <g id="_Grille_de_répétition_-44" data-name="&amp;lt;Grille de répétition&amp;gt;">
                <g>
                  <rect class="cls-6" x="1897.84" y="506.96" width="61.03" height="61.03" rx="17.83" ry="17.83"/>
                  <rect class="cls-4" x="1897.84" y="573.29" width="61.03" height="61.03" rx="17.83" ry="17.83"/>
                </g>
              </g>
              <g id="_Grille_de_répétition_-45" data-name="&amp;lt;Grille de répétition&amp;gt;">
                <g>
                  <rect class="cls-6" x="-16.05" y="679.91" width="61.03" height="61.03" rx="17.83" ry="17.83"/>
                  <path class="cls-3" d="M80.79,740.94h-9.32c-11.7,0-21.19-9.49-21.19-21.19v-18.65c0-11.7,9.49-21.19,21.19-21.19h9.32c16.85,0,30.51,13.66,30.51,30.51,0,16.85-13.66,30.51-30.51,30.51Z"/>
                  <rect class="cls-4" x="-16.05" y="746.24" width="61.03" height="61.03" rx="17.83" ry="17.83"/>
                  <path class="cls-5" d="M80.79,807.27h-9.32c-11.7,0-21.19-9.49-21.19-21.19v-18.65c0-11.7,9.49-21.19,21.19-21.19h9.32c16.85,0,30.51,13.66,30.51,30.51,0,16.85-13.66,30.51-30.51,30.51Z"/>
                </g>
              </g>
              <g id="_Grille_de_répétition_-46" data-name="&amp;lt;Grille de répétition&amp;gt;">
                <g>
                  <rect class="cls-6" x="175.34" y="679.91" width="61.03" height="61.03" rx="17.83" ry="17.83"/>
                  <path class="cls-3" d="M272.18,740.94h-9.32c-11.7,0-21.19-9.49-21.19-21.19v-18.65c0-11.7,9.49-21.19,21.19-21.19h9.32c16.85,0,30.51,13.66,30.51,30.51,0,16.85-13.66,30.51-30.51,30.51Z"/>
                  <rect class="cls-4" x="175.34" y="746.24" width="61.03" height="61.03" rx="17.83" ry="17.83"/>
                  <path class="cls-5" d="M272.18,807.27h-9.32c-11.7,0-21.19-9.49-21.19-21.19v-18.65c0-11.7,9.49-21.19,21.19-21.19h9.32c16.85,0,30.51,13.66,30.51,30.51,0,16.85-13.66,30.51-30.51,30.51Z"/>
                </g>
              </g>
              <g id="_Grille_de_répétition_-47" data-name="&amp;lt;Grille de répétition&amp;gt;">
                <g>
                  <rect class="cls-6" x="366.73" y="679.91" width="61.03" height="61.03" rx="17.83" ry="17.83"/>
                  <path class="cls-3" d="M463.57,740.94h-9.32c-11.7,0-21.19-9.49-21.19-21.19v-18.65c0-11.7,9.49-21.19,21.19-21.19h9.32c16.85,0,30.51,13.66,30.51,30.51,0,16.85-13.66,30.51-30.51,30.51Z"/>
                  <rect class="cls-4" x="366.73" y="746.24" width="61.03" height="61.03" rx="17.83" ry="17.83"/>
                  <path class="cls-5" d="M463.57,807.27h-9.32c-11.7,0-21.19-9.49-21.19-21.19v-18.65c0-11.7,9.49-21.19,21.19-21.19h9.32c16.85,0,30.51,13.66,30.51,30.51,0,16.85-13.66,30.51-30.51,30.51Z"/>
                </g>
              </g>
              <g id="_Grille_de_répétition_-48" data-name="&amp;lt;Grille de répétition&amp;gt;">
                <g>
                  <rect class="cls-6" x="558.12" y="679.91" width="61.03" height="61.03" rx="17.83" ry="17.83"/>
                  <path class="cls-3" d="M654.96,740.94h-9.32c-11.7,0-21.19-9.49-21.19-21.19v-18.65c0-11.7,9.49-21.19,21.19-21.19h9.32c16.85,0,30.51,13.66,30.51,30.51,0,16.85-13.66,30.51-30.51,30.51Z"/>
                  <rect class="cls-4" x="558.12" y="746.24" width="61.03" height="61.03" rx="17.83" ry="17.83"/>
                  <path class="cls-5" d="M654.96,807.27h-9.32c-11.7,0-21.19-9.49-21.19-21.19v-18.65c0-11.7,9.49-21.19,21.19-21.19h9.32c16.85,0,30.51,13.66,30.51,30.51,0,16.85-13.66,30.51-30.51,30.51Z"/>
                </g>
              </g>
              <g id="_Grille_de_répétition_-49" data-name="&amp;lt;Grille de répétition&amp;gt;">
                <g>
                  <rect class="cls-6" x="749.51" y="679.91" width="61.03" height="61.03" rx="17.83" ry="17.83"/>
                  <path class="cls-3" d="M846.35,740.94h-9.32c-11.7,0-21.19-9.49-21.19-21.19v-18.65c0-11.7,9.49-21.19,21.19-21.19h9.32c16.85,0,30.51,13.66,30.51,30.51,0,16.85-13.66,30.51-30.51,30.51Z"/>
                  <rect class="cls-4" x="749.51" y="746.24" width="61.03" height="61.03" rx="17.83" ry="17.83"/>
                  <path class="cls-5" d="M846.35,807.27h-9.32c-11.7,0-21.19-9.49-21.19-21.19v-18.65c0-11.7,9.49-21.19,21.19-21.19h9.32c16.85,0,30.51,13.66,30.51,30.51,0,16.85-13.66,30.51-30.51,30.51Z"/>
                </g>
              </g>
              <g id="_Grille_de_répétition_-50" data-name="&amp;lt;Grille de répétition&amp;gt;">
                <g>
                  <rect class="cls-6" x="940.9" y="679.91" width="61.03" height="61.03" rx="17.83" ry="17.83"/>
                  <path class="cls-3" d="M1037.74,740.94h-9.32c-11.7,0-21.19-9.49-21.19-21.19v-18.65c0-11.7,9.49-21.19,21.19-21.19h9.32c16.85,0,30.51,13.66,30.51,30.51,0,16.85-13.66,30.51-30.51,30.51Z"/>
                  <rect class="cls-4" x="940.9" y="746.24" width="61.03" height="61.03" rx="17.83" ry="17.83"/>
                  <path class="cls-5" d="M1037.74,807.27h-9.32c-11.7,0-21.19-9.49-21.19-21.19v-18.65c0-11.7,9.49-21.19,21.19-21.19h9.32c16.85,0,30.51,13.66,30.51,30.51,0,16.85-13.66,30.51-30.51,30.51Z"/>
                </g>
              </g>
              <g id="_Grille_de_répétition_-51" data-name="&amp;lt;Grille de répétition&amp;gt;">
                <g>
                  <rect class="cls-6" x="1132.29" y="679.91" width="61.03" height="61.03" rx="17.83" ry="17.83"/>
                  <path class="cls-3" d="M1229.13,740.94h-9.32c-11.7,0-21.19-9.49-21.19-21.19v-18.65c0-11.7,9.49-21.19,21.19-21.19h9.32c16.85,0,30.51,13.66,30.51,30.51,0,16.85-13.66,30.51-30.51,30.51Z"/>
                  <rect class="cls-4" x="1132.29" y="746.24" width="61.03" height="61.03" rx="17.83" ry="17.83"/>
                  <path class="cls-5" d="M1229.13,807.27h-9.32c-11.7,0-21.19-9.49-21.19-21.19v-18.65c0-11.7,9.49-21.19,21.19-21.19h9.32c16.85,0,30.51,13.66,30.51,30.51,0,16.85-13.66,30.51-30.51,30.51Z"/>
                </g>
              </g>
              <g id="_Grille_de_répétition_-52" data-name="&amp;lt;Grille de répétition&amp;gt;">
                <g>
                  <rect class="cls-6" x="1323.67" y="679.91" width="61.03" height="61.03" rx="17.83" ry="17.83"/>
                  <path class="cls-3" d="M1420.52,740.94h-9.32c-11.7,0-21.19-9.49-21.19-21.19v-18.65c0-11.7,9.49-21.19,21.19-21.19h9.32c16.85,0,30.51,13.66,30.51,30.51,0,16.85-13.66,30.51-30.51,30.51Z"/>
                  <rect class="cls-4" x="1323.67" y="746.24" width="61.03" height="61.03" rx="17.83" ry="17.83"/>
                  <path class="cls-5" d="M1420.52,807.27h-9.32c-11.7,0-21.19-9.49-21.19-21.19v-18.65c0-11.7,9.49-21.19,21.19-21.19h9.32c16.85,0,30.51,13.66,30.51,30.51,0,16.85-13.66,30.51-30.51,30.51Z"/>
                </g>
              </g>
              <g id="_Grille_de_répétition_-53" data-name="&amp;lt;Grille de répétition&amp;gt;">
                <g>
                  <rect class="cls-6" x="1515.06" y="679.91" width="61.03" height="61.03" rx="17.83" ry="17.83"/>
                  <path class="cls-3" d="M1611.91,740.94h-9.32c-11.7,0-21.19-9.49-21.19-21.19v-18.65c0-11.7,9.49-21.19,21.19-21.19h9.32c16.85,0,30.51,13.66,30.51,30.51,0,16.85-13.66,30.51-30.51,30.51Z"/>
                  <rect class="cls-4" x="1515.06" y="746.24" width="61.03" height="61.03" rx="17.83" ry="17.83"/>
                  <path class="cls-5" d="M1611.91,807.27h-9.32c-11.7,0-21.19-9.49-21.19-21.19v-18.65c0-11.7,9.49-21.19,21.19-21.19h9.32c16.85,0,30.51,13.66,30.51,30.51,0,16.85-13.66,30.51-30.51,30.51Z"/>
                </g>
              </g>
              <g id="_Grille_de_répétition_-54" data-name="&amp;lt;Grille de répétition&amp;gt;">
                <g>
                  <rect class="cls-6" x="1706.45" y="679.91" width="61.03" height="61.03" rx="17.83" ry="17.83"/>
                  <path class="cls-3" d="M1803.29,740.94h-9.32c-11.7,0-21.19-9.49-21.19-21.19v-18.65c0-11.7,9.49-21.19,21.19-21.19h9.32c16.85,0,30.51,13.66,30.51,30.51,0,16.85-13.66,30.51-30.51,30.51Z"/>
                  <rect class="cls-4" x="1706.45" y="746.24" width="61.03" height="61.03" rx="17.83" ry="17.83"/>
                  <path class="cls-5" d="M1803.29,807.27h-9.32c-11.7,0-21.19-9.49-21.19-21.19v-18.65c0-11.7,9.49-21.19,21.19-21.19h9.32c16.85,0,30.51,13.66,30.51,30.51,0,16.85-13.66,30.51-30.51,30.51Z"/>
                </g>
              </g>
              <g id="_Grille_de_répétition_-55" data-name="&amp;lt;Grille de répétition&amp;gt;">
                <g>
                  <rect class="cls-6" x="1897.84" y="679.91" width="61.03" height="61.03" rx="17.83" ry="17.83"/>
                  <rect class="cls-4" x="1897.84" y="746.24" width="61.03" height="61.03" rx="17.83" ry="17.83"/>
                </g>
              </g>
              <g id="_Grille_de_répétition_-56" data-name="&amp;lt;Grille de répétition&amp;gt;">
                <g>
                  <rect class="cls-6" x="-16.05" y="852.87" width="61.03" height="61.03" rx="17.83" ry="17.83"/>
                  <path class="cls-3" d="M80.79,913.9h-9.32c-11.7,0-21.19-9.49-21.19-21.19v-18.65c0-11.7,9.49-21.19,21.19-21.19h9.32c16.85,0,30.51,13.66,30.51,30.51,0,16.85-13.66,30.51-30.51,30.51Z"/>
                  <rect class="cls-4" x="-16.05" y="919.2" width="61.03" height="61.03" rx="17.83" ry="17.83"/>
                  <path class="cls-5" d="M80.79,980.23h-9.32c-11.7,0-21.19-9.49-21.19-21.19v-18.65c0-11.7,9.49-21.19,21.19-21.19h9.32c16.85,0,30.51,13.66,30.51,30.51,0,16.85-13.66,30.51-30.51,30.51Z"/>
                </g>
              </g>
              <g id="_Grille_de_répétition_-57" data-name="&amp;lt;Grille de répétition&amp;gt;">
                <g>
                  <rect class="cls-6" x="175.34" y="852.87" width="61.03" height="61.03" rx="17.83" ry="17.83"/>
                  <path class="cls-3" d="M272.18,913.9h-9.32c-11.7,0-21.19-9.49-21.19-21.19v-18.65c0-11.7,9.49-21.19,21.19-21.19h9.32c16.85,0,30.51,13.66,30.51,30.51,0,16.85-13.66,30.51-30.51,30.51Z"/>
                  <rect class="cls-4" x="175.34" y="919.2" width="61.03" height="61.03" rx="17.83" ry="17.83"/>
                  <path class="cls-5" d="M272.18,980.23h-9.32c-11.7,0-21.19-9.49-21.19-21.19v-18.65c0-11.7,9.49-21.19,21.19-21.19h9.32c16.85,0,30.51,13.66,30.51,30.51,0,16.85-13.66,30.51-30.51,30.51Z"/>
                </g>
              </g>
              <g id="_Grille_de_répétition_-58" data-name="&amp;lt;Grille de répétition&amp;gt;">
                <g>
                  <rect class="cls-6" x="366.73" y="852.87" width="61.03" height="61.03" rx="17.83" ry="17.83"/>
                  <path class="cls-3" d="M463.57,913.9h-9.32c-11.7,0-21.19-9.49-21.19-21.19v-18.65c0-11.7,9.49-21.19,21.19-21.19h9.32c16.85,0,30.51,13.66,30.51,30.51,0,16.85-13.66,30.51-30.51,30.51Z"/>
                  <rect class="cls-4" x="366.73" y="919.2" width="61.03" height="61.03" rx="17.83" ry="17.83"/>
                  <path class="cls-5" d="M463.57,980.23h-9.32c-11.7,0-21.19-9.49-21.19-21.19v-18.65c0-11.7,9.49-21.19,21.19-21.19h9.32c16.85,0,30.51,13.66,30.51,30.51,0,16.85-13.66,30.51-30.51,30.51Z"/>
                </g>
              </g>
              <g id="_Grille_de_répétition_-59" data-name="&amp;lt;Grille de répétition&amp;gt;">
                <g>
                  <rect class="cls-6" x="558.12" y="852.87" width="61.03" height="61.03" rx="17.83" ry="17.83"/>
                  <path class="cls-3" d="M654.96,913.9h-9.32c-11.7,0-21.19-9.49-21.19-21.19v-18.65c0-11.7,9.49-21.19,21.19-21.19h9.32c16.85,0,30.51,13.66,30.51,30.51,0,16.85-13.66,30.51-30.51,30.51Z"/>
                  <rect class="cls-4" x="558.12" y="919.2" width="61.03" height="61.03" rx="17.83" ry="17.83"/>
                  <path class="cls-5" d="M654.96,980.23h-9.32c-11.7,0-21.19-9.49-21.19-21.19v-18.65c0-11.7,9.49-21.19,21.19-21.19h9.32c16.85,0,30.51,13.66,30.51,30.51,0,16.85-13.66,30.51-30.51,30.51Z"/>
                </g>
              </g>
              <g id="_Grille_de_répétition_-60" data-name="&amp;lt;Grille de répétition&amp;gt;">
                <g>
                  <rect class="cls-6" x="749.51" y="852.87" width="61.03" height="61.03" rx="17.83" ry="17.83"/>
                  <path class="cls-3" d="M846.35,913.9h-9.32c-11.7,0-21.19-9.49-21.19-21.19v-18.65c0-11.7,9.49-21.19,21.19-21.19h9.32c16.85,0,30.51,13.66,30.51,30.51,0,16.85-13.66,30.51-30.51,30.51Z"/>
                  <rect class="cls-4" x="749.51" y="919.2" width="61.03" height="61.03" rx="17.83" ry="17.83"/>
                  <path class="cls-5" d="M846.35,980.23h-9.32c-11.7,0-21.19-9.49-21.19-21.19v-18.65c0-11.7,9.49-21.19,21.19-21.19h9.32c16.85,0,30.51,13.66,30.51,30.51,0,16.85-13.66,30.51-30.51,30.51Z"/>
                </g>
              </g>
              <g id="_Grille_de_répétition_-61" data-name="&amp;lt;Grille de répétition&amp;gt;">
                <g>
                  <rect class="cls-6" x="940.9" y="852.87" width="61.03" height="61.03" rx="17.83" ry="17.83"/>
                  <path class="cls-3" d="M1037.74,913.9h-9.32c-11.7,0-21.19-9.49-21.19-21.19v-18.65c0-11.7,9.49-21.19,21.19-21.19h9.32c16.85,0,30.51,13.66,30.51,30.51,0,16.85-13.66,30.51-30.51,30.51Z"/>
                  <rect class="cls-4" x="940.9" y="919.2" width="61.03" height="61.03" rx="17.83" ry="17.83"/>
                  <path class="cls-5" d="M1037.74,980.23h-9.32c-11.7,0-21.19-9.49-21.19-21.19v-18.65c0-11.7,9.49-21.19,21.19-21.19h9.32c16.85,0,30.51,13.66,30.51,30.51,0,16.85-13.66,30.51-30.51,30.51Z"/>
                </g>
              </g>
              <g id="_Grille_de_répétition_-62" data-name="&amp;lt;Grille de répétition&amp;gt;">
                <g>
                  <rect class="cls-6" x="1132.29" y="852.87" width="61.03" height="61.03" rx="17.83" ry="17.83"/>
                  <path class="cls-3" d="M1229.13,913.9h-9.32c-11.7,0-21.19-9.49-21.19-21.19v-18.65c0-11.7,9.49-21.19,21.19-21.19h9.32c16.85,0,30.51,13.66,30.51,30.51,0,16.85-13.66,30.51-30.51,30.51Z"/>
                  <rect class="cls-4" x="1132.29" y="919.2" width="61.03" height="61.03" rx="17.83" ry="17.83"/>
                  <path class="cls-5" d="M1229.13,980.23h-9.32c-11.7,0-21.19-9.49-21.19-21.19v-18.65c0-11.7,9.49-21.19,21.19-21.19h9.32c16.85,0,30.51,13.66,30.51,30.51,0,16.85-13.66,30.51-30.51,30.51Z"/>
                </g>
              </g>
              <g id="_Grille_de_répétition_-63" data-name="&amp;lt;Grille de répétition&amp;gt;">
                <g>
                  <rect class="cls-6" x="1323.67" y="852.87" width="61.03" height="61.03" rx="17.83" ry="17.83"/>
                  <path class="cls-3" d="M1420.52,913.9h-9.32c-11.7,0-21.19-9.49-21.19-21.19v-18.65c0-11.7,9.49-21.19,21.19-21.19h9.32c16.85,0,30.51,13.66,30.51,30.51,0,16.85-13.66,30.51-30.51,30.51Z"/>
                  <rect class="cls-4" x="1323.67" y="919.2" width="61.03" height="61.03" rx="17.83" ry="17.83"/>
                  <path class="cls-5" d="M1420.52,980.23h-9.32c-11.7,0-21.19-9.49-21.19-21.19v-18.65c0-11.7,9.49-21.19,21.19-21.19h9.32c16.85,0,30.51,13.66,30.51,30.51,0,16.85-13.66,30.51-30.51,30.51Z"/>
                </g>
              </g>
              <g id="_Grille_de_répétition_-64" data-name="&amp;lt;Grille de répétition&amp;gt;">
                <g>
                  <rect class="cls-6" x="1515.06" y="852.87" width="61.03" height="61.03" rx="17.83" ry="17.83"/>
                  <path class="cls-3" d="M1611.91,913.9h-9.32c-11.7,0-21.19-9.49-21.19-21.19v-18.65c0-11.7,9.49-21.19,21.19-21.19h9.32c16.85,0,30.51,13.66,30.51,30.51,0,16.85-13.66,30.51-30.51,30.51Z"/>
                  <rect class="cls-4" x="1515.06" y="919.2" width="61.03" height="61.03" rx="17.83" ry="17.83"/>
                  <path class="cls-5" d="M1611.91,980.23h-9.32c-11.7,0-21.19-9.49-21.19-21.19v-18.65c0-11.7,9.49-21.19,21.19-21.19h9.32c16.85,0,30.51,13.66,30.51,30.51,0,16.85-13.66,30.51-30.51,30.51Z"/>
                </g>
              </g>
              <g id="_Grille_de_répétition_-65" data-name="&amp;lt;Grille de répétition&amp;gt;">
                <g>
                  <rect class="cls-6" x="1706.45" y="852.87" width="61.03" height="61.03" rx="17.83" ry="17.83"/>
                  <path class="cls-3" d="M1803.29,913.9h-9.32c-11.7,0-21.19-9.49-21.19-21.19v-18.65c0-11.7,9.49-21.19,21.19-21.19h9.32c16.85,0,30.51,13.66,30.51,30.51,0,16.85-13.66,30.51-30.51,30.51Z"/>
                  <rect class="cls-4" x="1706.45" y="919.2" width="61.03" height="61.03" rx="17.83" ry="17.83"/>
                  <path class="cls-5" d="M1803.29,980.23h-9.32c-11.7,0-21.19-9.49-21.19-21.19v-18.65c0-11.7,9.49-21.19,21.19-21.19h9.32c16.85,0,30.51,13.66,30.51,30.51,0,16.85-13.66,30.51-30.51,30.51Z"/>
                </g>
              </g>
              <g id="_Grille_de_répétition_-66" data-name="&amp;lt;Grille de répétition&amp;gt;">
                <g>
                  <rect class="cls-6" x="1897.84" y="852.87" width="61.03" height="61.03" rx="17.83" ry="17.83"/>
                  <rect class="cls-4" x="1897.84" y="919.2" width="61.03" height="61.03" rx="17.83" ry="17.83"/>
                </g>
              </g>
              <g id="_Grille_de_répétition_-67" data-name="&amp;lt;Grille de répétition&amp;gt;">
                <g>
                  <rect class="cls-6" x="-16.05" y="1025.83" width="61.03" height="61.03" rx="17.83" ry="17.83"/>
                  <path class="cls-3" d="M80.79,1086.86h-9.32c-11.7,0-21.19-9.49-21.19-21.19v-18.65c0-11.7,9.49-21.19,21.19-21.19h9.32c16.85,0,30.51,13.66,30.51,30.51,0,16.85-13.66,30.51-30.51,30.51Z"/>
                </g>
              </g>
              <g id="_Grille_de_répétition_-68" data-name="&amp;lt;Grille de répétition&amp;gt;">
                <g>
                  <rect class="cls-6" x="175.34" y="1025.83" width="61.03" height="61.03" rx="17.83" ry="17.83"/>
                  <path class="cls-3" d="M272.18,1086.86h-9.32c-11.7,0-21.19-9.49-21.19-21.19v-18.65c0-11.7,9.49-21.19,21.19-21.19h9.32c16.85,0,30.51,13.66,30.51,30.51,0,16.85-13.66,30.51-30.51,30.51Z"/>
                </g>
              </g>
              <g id="_Grille_de_répétition_-69" data-name="&amp;lt;Grille de répétition&amp;gt;">
                <g>
                  <rect class="cls-6" x="366.73" y="1025.83" width="61.03" height="61.03" rx="17.83" ry="17.83"/>
                  <path class="cls-3" d="M463.57,1086.86h-9.32c-11.7,0-21.19-9.49-21.19-21.19v-18.65c0-11.7,9.49-21.19,21.19-21.19h9.32c16.85,0,30.51,13.66,30.51,30.51,0,16.85-13.66,30.51-30.51,30.51Z"/>
                </g>
              </g>
              <g id="_Grille_de_répétition_-70" data-name="&amp;lt;Grille de répétition&amp;gt;">
                <g>
                  <rect class="cls-6" x="558.12" y="1025.83" width="61.03" height="61.03" rx="17.83" ry="17.83"/>
                  <path class="cls-3" d="M654.96,1086.86h-9.32c-11.7,0-21.19-9.49-21.19-21.19v-18.65c0-11.7,9.49-21.19,21.19-21.19h9.32c16.85,0,30.51,13.66,30.51,30.51,0,16.85-13.66,30.51-30.51,30.51Z"/>
                </g>
              </g>
              <g id="_Grille_de_répétition_-71" data-name="&amp;lt;Grille de répétition&amp;gt;">
                <g>
                  <rect class="cls-6" x="749.51" y="1025.83" width="61.03" height="61.03" rx="17.83" ry="17.83"/>
                  <path class="cls-3" d="M846.35,1086.86h-9.32c-11.7,0-21.19-9.49-21.19-21.19v-18.65c0-11.7,9.49-21.19,21.19-21.19h9.32c16.85,0,30.51,13.66,30.51,30.51,0,16.85-13.66,30.51-30.51,30.51Z"/>
                </g>
              </g>
              <g id="_Grille_de_répétition_-72" data-name="&amp;lt;Grille de répétition&amp;gt;">
                <g>
                  <rect class="cls-6" x="940.9" y="1025.83" width="61.03" height="61.03" rx="17.83" ry="17.83"/>
                  <path class="cls-3" d="M1037.74,1086.86h-9.32c-11.7,0-21.19-9.49-21.19-21.19v-18.65c0-11.7,9.49-21.19,21.19-21.19h9.32c16.85,0,30.51,13.66,30.51,30.51,0,16.85-13.66,30.51-30.51,30.51Z"/>
                </g>
              </g>
              <g id="_Grille_de_répétition_-73" data-name="&amp;lt;Grille de répétition&amp;gt;">
                <g>
                  <rect class="cls-6" x="1132.29" y="1025.83" width="61.03" height="61.03" rx="17.83" ry="17.83"/>
                  <path class="cls-3" d="M1229.13,1086.86h-9.32c-11.7,0-21.19-9.49-21.19-21.19v-18.65c0-11.7,9.49-21.19,21.19-21.19h9.32c16.85,0,30.51,13.66,30.51,30.51,0,16.85-13.66,30.51-30.51,30.51Z"/>
                </g>
              </g>
              <g id="_Grille_de_répétition_-74" data-name="&amp;lt;Grille de répétition&amp;gt;">
                <g>
                  <rect class="cls-6" x="1323.67" y="1025.83" width="61.03" height="61.03" rx="17.83" ry="17.83"/>
                  <path class="cls-3" d="M1420.52,1086.86h-9.32c-11.7,0-21.19-9.49-21.19-21.19v-18.65c0-11.7,9.49-21.19,21.19-21.19h9.32c16.85,0,30.51,13.66,30.51,30.51,0,16.85-13.66,30.51-30.51,30.51Z"/>
                </g>
              </g>
              <g id="_Grille_de_répétition_-75" data-name="&amp;lt;Grille de répétition&amp;gt;">
                <g>
                  <rect class="cls-6" x="1515.06" y="1025.83" width="61.03" height="61.03" rx="17.83" ry="17.83"/>
                  <path class="cls-3" d="M1611.91,1086.86h-9.32c-11.7,0-21.19-9.49-21.19-21.19v-18.65c0-11.7,9.49-21.19,21.19-21.19h9.32c16.85,0,30.51,13.66,30.51,30.51,0,16.85-13.66,30.51-30.51,30.51Z"/>
                </g>
              </g>
              <g id="_Grille_de_répétition_-76" data-name="&amp;lt;Grille de répétition&amp;gt;">
                <g>
                  <rect class="cls-6" x="1706.45" y="1025.83" width="61.03" height="61.03" rx="17.83" ry="17.83"/>
                  <path class="cls-3" d="M1803.29,1086.86h-9.32c-11.7,0-21.19-9.49-21.19-21.19v-18.65c0-11.7,9.49-21.19,21.19-21.19h9.32c16.85,0,30.51,13.66,30.51,30.51,0,16.85-13.66,30.51-30.51,30.51Z"/>
                </g>
              </g>
              <g id="_Grille_de_répétition_-77" data-name="&amp;lt;Grille de répétition&amp;gt;">
                <rect class="cls-6" x="1897.84" y="1025.83" width="61.03" height="61.03" rx="17.83" ry="17.83"/>
              </g>
            </g>
          </g>
        </g>
      </g>
    </g>
  </g>
</svg>