<?xml version="1.0" encoding="UTF-8"?>
<svg id="Calque_1" data-name="Calque 1" xmlns="http://www.w3.org/2000/svg" xmlns:xlink="http://www.w3.org/1999/xlink" viewBox="0 0 1600 600">
  <defs>
    <style>
      .cls-1 {
        fill: url(#Dégradé_sans_nom_6);
      }

      .cls-2 {
        fill: url(#Dégradé_sans_nom_4);
      }

      .cls-3 {
        fill: url(#Dégradé_sans_nom_5);
      }

      .cls-4 {
        fill: #21355b;
      }

      .cls-5 {
        fill: #f9b233;
      }
    </style>
    <linearGradient id="Dégradé_sans_nom_4" data-name="Dégradé sans nom 4" x1="31.74" y1="-3169.67" x2="32.74" y2="-3169.67" gradientTransform="translate(1499277.1176 -1204751.2903) rotate(51.789) scale(606.7616 -606.7616)" gradientUnits="userSpaceOnUse">
      <stop offset="0" stop-color="#336558"/>
      <stop offset="1" stop-color="#21355b"/>
    </linearGradient>
    <linearGradient id="Dégradé_sans_nom_5" data-name="Dégradé sans nom 5" x1="31.74" y1="-3169.67" x2="32.74" y2="-3169.67" gradientTransform="translate(1499165.7137 -1204663.5894) rotate(51.789) scale(606.7616 -606.7616)" gradientUnits="userSpaceOnUse">
      <stop offset="0" stop-color="#336558"/>
      <stop offset="1" stop-color="#21355b"/>
    </linearGradient>
    <linearGradient id="Dégradé_sans_nom_6" data-name="Dégradé sans nom 6" x1="31.74" y1="-3169.67" x2="32.74" y2="-3169.67" gradientTransform="translate(1499302.1093 -1204770.9646) rotate(51.789) scale(606.7616 -606.7616)" gradientUnits="userSpaceOnUse">
      <stop offset="0" stop-color="#336558"/>
      <stop offset="1" stop-color="#21355b"/>
    </linearGradient>
  </defs>
  <rect class="cls-2" x="61.17" y="79.94" width="210.91" height="210.91" rx="61.62" ry="61.62"/>
  <path class="cls-5" d="M395.84,290.85h-32.22c-40.45,0-73.23-32.79-73.23-73.23v-64.44c0-40.44,32.79-73.23,73.23-73.23h32.22c58.24,0,105.45,47.21,105.45,105.45s-47.21,105.45-105.45,105.45Z"/>
  <rect class="cls-3" x="61.17" y="309.15" width="210.91" height="210.91" rx="61.62" ry="61.62"/>
  <path class="cls-1" d="M395.84,520.06h-32.22c-40.45,0-73.23-32.79-73.23-73.23v-64.44c0-40.44,32.79-73.23,73.23-73.23h32.22c58.24,0,105.45,47.21,105.45,105.45s-47.21,105.45-105.45,105.45Z"/>
  <path class="cls-4" d="M668.74,277.99c7.14,3.58,12.77,8.82,16.88,15.72,4.12,6.91,6.18,14.8,6.18,23.64,0,12.74-4.85,23.53-14.56,32.37-9.7,8.86-21.54,13.28-35.52,13.28h-67.08v-163.02h65.68c13.66,0,24.96,3.99,33.89,11.99s13.39,17.97,13.39,29.92c0,7.15-1.71,14.01-5.13,20.62-3.41,6.6-8,11.75-13.73,15.48ZM661.06,245.85c0-6.22-2.14-11.3-6.41-15.26-4.27-3.96-9.59-5.94-15.96-5.94h-37.73v42.39h37.73c6.52,0,11.88-2.02,16.07-6.05,4.2-4.04,6.29-9.08,6.29-15.14ZM640.09,337.37c7.14,0,13-2.16,17.58-6.52,4.59-4.33,6.87-9.86,6.87-16.53s-2.29-12.19-6.87-16.54c-4.57-4.35-10.44-6.52-17.58-6.52h-39.13v46.11h39.13Z"/>
  <path class="cls-4" d="M692.95,408.18v-23.75h9.08c7.14,0,12.61-1.95,16.43-5.82,3.8-3.88,5.7-9.4,5.7-16.54v-124.83h25.85v126.7c0,13.19-4.07,23.87-12.22,32.02-8.16,8.15-18.84,12.23-32.03,12.23h-12.81Z"/>
  <path class="cls-4" d="M861.35,365.79c-24.07,0-44.06-7.95-59.98-23.87-15.91-15.92-23.87-36.06-23.87-60.44s7.96-44.53,23.87-60.44c15.92-15.92,35.91-23.88,59.98-23.88,12.72,0,24.53,2.49,35.39,7.45,10.87,4.98,19.99,12.04,27.37,21.2,7.37,9.16,12.46,19.79,15.25,31.9h-27.01c-3.88-10.87-10.32-19.37-19.33-25.51-9.01-6.13-19.56-9.2-31.66-9.2-16.31,0-29.82,5.52-40.53,16.54-10.71,11.03-16.06,25.03-16.06,42.04s5.34,30.97,16.06,41.92c10.71,10.94,24.22,16.41,40.53,16.41,12.41,0,23.2-3.3,32.37-9.89,9.15-6.6,15.52-15.64,19.09-27.13h27.25c-4.2,19.09-13.43,34.34-27.72,45.75-14.29,11.42-31.29,17.12-51,17.12Z"/>
  <path class="cls-4" d="M1072,347.28c-12.81,12.5-28.85,18.75-48.09,18.75s-35.29-6.25-48.1-18.75c-12.8-12.5-19.21-28.21-19.21-47.17,0-12.42,2.91-23.67,8.73-33.76,5.82-10.1,13.9-17.97,24.22-23.64,10.32-5.67,21.77-8.5,34.36-8.5s24.02,2.83,34.34,8.5c10.32,5.67,18.41,13.55,24.22,23.64,5.82,10.1,8.74,21.34,8.74,33.76,0,18.95-6.41,34.67-19.22,47.17ZM1023.91,341.34c7.91,0,14.97-1.74,21.19-5.24,6.2-3.49,11.07-8.38,14.56-14.67,3.49-6.29,5.24-13.39,5.24-21.32,0-11.95-3.84-21.81-11.54-29.58-7.68-7.76-17.5-11.64-29.45-11.64s-21.78,3.88-29.47,11.64c-7.68,7.77-11.52,17.63-11.52,29.58s3.84,21.82,11.52,29.58c7.68,7.77,17.5,11.65,29.47,11.65Z"/>
  <rect class="cls-4" x="1118.69" y="192.05" width="25.85" height="170.95"/>
  <rect class="cls-4" x="1181.34" y="192.05" width="25.85" height="170.95"/>
  <path class="cls-4" d="M1349.25,237.24h20.04v125.76h-20.96l-2.57-15.38c-12.12,12.27-27.25,18.41-45.41,18.41s-34.43-6.29-46.93-18.86c-12.51-12.58-18.75-28.3-18.75-47.17s6.24-34.55,18.75-47.04c12.5-12.5,28.14-18.75,46.93-18.75s33.76,6.22,45.88,18.64l3.02-15.6ZM1272.74,329.58c7.85,7.85,17.7,11.76,29.58,11.76s21.67-3.92,29.35-11.76c7.68-7.83,11.52-17.7,11.52-29.58s-3.84-21.7-11.52-29.47c-7.68-7.76-17.51-11.64-29.47-11.64-7.76,0-14.78,1.78-21.08,5.36-6.29,3.58-11.22,8.5-14.78,14.78-3.58,6.29-5.36,13.32-5.36,21.08,0,11.8,3.92,21.63,11.75,29.47Z"/>
  <path class="cls-4" d="M1473.39,234.2c18.94,0,34.58,6.25,46.93,18.75,12.34,12.5,18.51,28.22,18.51,47.16s-6.17,34.67-18.51,47.17c-12.34,12.5-27.99,18.75-46.93,18.75-17.55,0-32.37-5.75-44.49-17.23l-3.26,14.2h-19.56v-170.95h25.85v56.82c11.65-9.78,25.46-14.67,41.46-14.67ZM1441.83,329.46c7.85,7.91,17.66,11.88,29.47,11.88s21.58-3.92,29.35-11.76c7.76-7.83,11.64-17.66,11.64-29.47s-3.88-21.62-11.64-29.45c-7.77-7.85-17.55-11.76-29.35-11.76-7.77,0-14.78,1.78-21.08,5.36-6.29,3.58-11.22,8.5-14.78,14.78-3.58,6.29-5.36,13.32-5.36,21.08,0,11.65,3.92,21.43,11.75,29.35Z"/>
  <rect class="cls-5" x="723.93" y="191.82" width="26.79" height="26.55"/>
</svg>